<svg width="1920" height="1920" viewBox="0 0 1920 1920" fill="none" xmlns="http://www.w3.org/2000/svg">
<g clip-path="url(#clip0_1_2)">
<rect width="1920" height="1920" rx="240" fill="#E11D48"/>
<rect width="1920" height="1920" rx="240" fill="url(#paint0_radial_1_2)" fill-opacity="0.6"/>
<path d="M1500 120C1599.41 120 1680 200.589 1680 300V1689.5C1680 1722.64 1653.14 1749.5 1620 1749.5C1586.86 1749.5 1560 1722.64 1560 1689.5V300C1560 266.863 1533.14 240 1500 240H570.003L1112.97 395.133C1164.48 409.852 1200 456.938 1200 510.516V1468.5C1200 1522.54 1163.88 1569.91 1111.76 1584.22L391.763 1781.84C315.382 1802.81 240 1745.33 240 1666.12V300C240 200.589 320.589 120 420 120H1500ZM1060 810C1010.29 810 970 850.295 970 900C970 949.705 1010.29 990 1060 990C1109.71 990 1150 949.705 1150 900C1150 850.295 1109.71 810 1060 810Z" fill="white"/>
</g>
<defs>
<radialGradient id="paint0_radial_1_2" cx="0" cy="0" r="1" gradientUnits="userSpaceOnUse" gradientTransform="translate(603.5 583) rotate(47.9811) scale(1611.2)">
<stop stop-color="white"/>
<stop offset="1" stop-color="#E11D48"/>
</radialGradient>
<clipPath id="clip0_1_2">
<rect width="1920" height="1920" fill="white"/>
</clipPath>
</defs>
</svg>
