<svg width="1920" height="1920" viewBox="0 0 1920 1920" fill="none" xmlns="http://www.w3.org/2000/svg">
<g clip-path="url(#clip0_33_172)">
<rect x="240" y="240" width="1440" height="1440" fill="#E11D48"/>
<path d="M1152 0C1420.82 0 1555.24 -0.000204788 1657.92 52.3164C1748.23 98.3356 1821.66 171.767 1867.68 262.085C1920 364.763 1920 499.175 1920 768V1152C1920 1420.82 1920 1555.24 1867.68 1657.92C1821.66 1748.23 1748.23 1821.66 1657.92 1867.68C1555.24 1920 1420.82 1920 1152 1920H768C499.175 1920 364.763 1920 262.085 1867.68C171.767 1821.66 98.3356 1748.23 52.3164 1657.92C-0.000204045 1555.24 0 1420.82 0 1152V768C0 499.175 -0.000204788 364.763 52.3164 262.085C98.3356 171.767 171.767 98.3356 262.085 52.3164C364.763 -0.000204045 499.175 0 768 0H1152ZM640 240.656C633.39 240.221 626.721 240 620 240C454.315 240 320 374.315 320 540V1560C320 1626.27 373.726 1680 440 1680H1480C1546.27 1680 1600 1626.27 1600 1560V540C1600 374.315 1465.69 240 1300 240C1293.28 240 1286.61 240.221 1280 240.656V240H640V240.656Z" fill="url(#paint0_radial_33_172)"/>
<path d="M320 526.43C320.001 377.074 454.959 263.993 602.008 290.135L1022.01 364.802C1136.56 385.166 1220 484.754 1220 601.097V1401.62C1220 1458.82 1179.62 1508.07 1123.53 1519.29L463.534 1651.29C389.279 1666.14 320 1609.35 320 1533.62V526.43ZM1050 870C1000.29 870 960.001 910.294 960 960C960 1009.71 1000.29 1050 1050 1050C1099.71 1050 1140 1009.71 1140 960C1140 910.295 1099.71 870 1050 870Z" fill="white"/>
</g>
<defs>
<radialGradient id="paint0_radial_33_172" cx="0" cy="0" r="1" gradientUnits="userSpaceOnUse" gradientTransform="translate(434.5 454) rotate(46.9784) scale(1628.38)">
<stop stop-color="#FDA4AF"/>
<stop offset="1" stop-color="#FB7185"/>
</radialGradient>
<clipPath id="clip0_33_172">
<rect width="1920" height="1920" fill="white"/>
</clipPath>
</defs>
</svg>
